<?xml version="1.0" encoding="UTF-8"?>
<svg id="Layer_2" data-name="Layer 2" xmlns="http://www.w3.org/2000/svg" viewBox="0 0 557.09 127.29">
  <defs>
    <style>
      .cls-1 {
        fill: blue;
      }
    </style>
  </defs>
  <g id="Layer_1-2" data-name="Layer 1">
    <path class="cls-1" d="m63.64,0C28.49,0,0,28.49,0,63.64s28.49,63.64,63.64,63.64,63.64-28.49,63.64-63.64S98.79,0,63.64,0Zm-24.8,102.01V25.28l56.39,38.36-56.39,38.36Z"/>
    <g>
      <path class="cls-1" d="m138.26,95.53v-53.77l16.29-10v52.47h18.87l-17,11.31h-18.16Z"/>
      <path class="cls-1" d="m219.44,95.53l-24.48-38.95.43,28.95-15.6,10v-53.77l14.05-10,24.82,40.33-.69-30.33,15.6-10v53.77l-14.13,10Z"/>
      <path class="cls-1" d="m326.65,95.53l-16.29-53.77,11.72-10,12.84,44.73h.17l10.93-34.73,18.81-10-18.37,58.77-19.81,5Z"/>
      <path class="cls-1" d="m368.8,42.62v-10.86h14.31v.86l-14.31,10Zm0,52.92v-47.83l14.31-10v47.83l-14.31,10Z"/>
    </g>
    <path class="cls-1" d="m531.58,46.07c-14.09,0-25.51,11.42-25.51,25.51s11.42,25.51,25.51,25.51,25.51-11.42,25.51-25.51-11.42-25.51-25.51-25.51Zm-9.94,40.89v-30.75l22.6,15.38-22.6,15.38Z"/>
    <path class="cls-1" d="m282.01,34.17c-3.36-1.55-8.45-2.5-15.25-2.41h-21.54v63.77l15.6-10v-9.99h7.58c18.27,0,24.82-10.43,24.82-22.23,0-8.62-4.31-15.94-11.2-19.13Zm-20.23,32.66v-29.65l21.79,14.82-21.79,14.82Z"/>
    <path class="cls-1" d="m428.95,41.76v9.99c-4.05-4.05-8.53-5.69-14.05-5.69-13.96,0-23.7,11.12-23.7,25.42s9.48,25.6,23.96,25.6c6.81,0,11.63-2.33,14.31-6.72h.17v5.17l13.62-10V31.76l-14.31,10Zm-24.49,44.19v-29.65l21.79,14.82-21.79,14.82Z"/>
    <path class="cls-1" d="m501.35,72.18c0-14.82-10.95-26.11-25.25-26.11s-25.08,11.89-25.08,25.68,11.55,25.34,25.34,25.34c10.08,0,18.79-6.12,23.36-16.55h-14.65c-2.33,3.02-4.83,4.48-8.7,4.48-5.86,0-10.43-3.62-11.2-9.05h35.85c.26-1.29.35-2.41.35-3.79Zm-33.44-5.06l10.28-15.11,9.28,15.11h-19.55Z"/>
  </g>
</svg>